<?xml version="1.0" encoding="utf-8"?>
<svg viewBox="-367.796 -328.669 1622.782 1267.245" xmlns="http://www.w3.org/2000/svg">
  <path d="M 71.652 86.686 C -29.507 206.573 -346.68 261.691 -347.121 335.312 C -347.563 408.935 -25.013 415.943 83.212 511.291 C 191.439 606.635 193.574 911.821 302.244 907.397 C 410.913 902.969 534.032 679.678 693.503 557.778 C 852.972 435.878 1268.339 264.907 1259.063 175.999 C 1249.786 87.088 831.896 61.742 665.355 -31.593 C 498.82 -124.93 358.788 -403.73 259.835 -384.018 C 160.885 -364.303 172.812 -33.204 71.652 86.686 C -29.507 206.573 -346.68 261.691 -347.121 335.312" style="fill: rgba(11, 60, 89, 0.15);" transform="matrix(-0.939693, -0.34202, 0.34202, -0.939693, 795.250305, 662.656189)"/>
  <path d="M -32.162 92.041 C -135.06 211.536 -273.014 280.183 -273.463 353.563 C -273.912 426.946 -86.206 443.99 23.88 539.026 C 133.967 634.058 282.542 891.333 393.08 886.924 C 503.618 882.51 571.245 531.677 733.458 410.176 C 895.668 288.674 1140.017 81.725 1130.582 -6.892 C 1121.146 -95.512 679.621 105.102 510.217 12.072 C 340.818 -80.961 304.193 -373.003 203.539 -353.355 C 102.888 -333.705 65.799 -31.573 -37.1 87.925 C -139.998 207.42 -274.354 282.622 -274.803 356.002" style="fill: rgba(11, 60, 89, 0.11);" transform="matrix(-0.939693, -0.34202, 0.34202, -0.939693, 739.146362, 663.010742)"/>
  <path d="M 893.812 469.118 C 893.647 469.6 893.159 469.846 892.719 469.668 L 217.356 193.142 C 216.743 192.89 216.609 192.002 217.114 191.545 C 217.348 191.334 217.665 191.275 217.949 191.39 L 893.311 467.915 C 893.75 468.096 893.974 468.633 893.812 469.118 Z" fill="#f2f2f2" style=""/>
  <path d="M 534.051 -56.579 L 373.123 -56.579 C 346.837 -56.546 325.537 -33.108 325.507 -4.185 L 325.507 11.82 C 324.089 11.391 322.692 12.577 322.711 14.195 L 322.711 26.504 C 322.692 28.121 324.089 29.308 325.507 28.878 L 325.507 47.515 C 324.089 47.085 322.692 48.271 322.711 49.89 L 322.711 80.661 C 322.692 82.28 324.089 83.465 325.507 83.036 L 325.507 94.287 C 324.089 93.858 322.692 95.044 322.711 96.662 L 322.711 127.434 C 322.692 129.052 324.089 130.237 325.507 129.808 L 325.507 454.758 C 325.537 483.68 346.837 507.118 373.123 507.151 L 534.051 507.151 C 560.336 507.118 581.636 483.68 581.667 454.758 L 581.667 -4.185 C 581.636 -33.108 560.336 -56.546 534.051 -56.579 Z M 571.599 454.758 C 571.575 477.565 554.779 496.047 534.051 496.073 L 373.123 496.073 C 352.395 496.047 335.597 477.565 335.574 454.758 L 335.574 -4.185 C 335.597 -26.993 352.395 -45.475 373.123 -45.501 L 534.051 -45.501 C 554.779 -45.476 571.575 -26.993 571.599 -4.185 L 571.599 454.758 Z" fill="#3f3d56" style=""/>
  <path d="M 534.051 502.227 L 373.123 502.227 C 349.307 502.198 330.008 480.962 329.981 454.758 L 329.981 -4.185 C 330.008 -30.39 349.307 -51.625 373.123 -51.656 L 534.051 -51.656 C 557.866 -51.625 577.165 -30.39 577.192 -4.185 L 577.192 454.758 C 577.165 480.962 557.866 502.198 534.051 502.227 Z" fill="#e6e6e6" style=""/>
  <path d="M 538.028 494.842 L 369.145 494.842 C 353.083 494.822 340.066 480.5 340.048 462.826 L 340.048 -12.254 C 340.066 -29.928 353.083 -44.25 369.145 -44.27 L 391.169 -44.27 C 393.825 -44.267 395.975 -41.9 395.979 -38.979 C 395.988 -30.349 402.343 -23.356 410.185 -23.346 L 494.75 -23.346 C 502.593 -23.356 508.949 -30.349 508.957 -38.979 C 508.96 -41.9 511.111 -44.267 513.766 -44.27 L 538.027 -44.27 C 554.09 -44.25 567.106 -29.928 567.124 -12.254 L 567.124 462.826 C 567.106 480.5 554.09 494.822 538.028 494.842 Z" fill="#fff" style=""/>
  <path d="M 460.858 -33.5 L 440.723 -33.5 C 439.001 -33.5 437.924 -35.552 438.785 -37.193 C 439.185 -37.955 439.923 -38.424 440.723 -38.424 L 460.858 -38.424 C 462.58 -38.424 463.656 -36.373 462.795 -34.732 C 462.396 -33.97 461.657 -33.5 460.858 -33.5 Z" fill="#fff" style=""/>
  <circle cx="352.27561" cy="22.70719" r="1.31636" fill="#fff" transform="matrix(0.849769, 0, 0, 0.935043, 175.487106, -56.579269)" style=""/>
  <rect x="334.385" y="51.886" width="238.18" height="2.806" fill="#e6e6e6" style=""/>
  <rect x="334.385" y="107.988" width="238.18" height="2.806" fill="#e6e6e6" style=""/>
  <rect x="334.385" y="223.933" width="238.18" height="2.806" fill="#e6e6e6" style=""/>
  <rect x="334.385" y="339.879" width="238.18" height="2.806" fill="#e6e6e6" style=""/>
  <rect x="334.385" y="430.578" width="238.18" height="2.806" fill="#e6e6e6" style=""/>
  <rect x="504.807" y="53.288" width="2.55" height="172.048" fill="#e6e6e6" style=""/>
  <rect x="385.573" y="225.286" width="2.55" height="206.694" fill="#e6e6e6" style=""/>
  <rect x="386.847" y="281.984" width="180.278" height="2.806" fill="#e6e6e6" style=""/>
  <rect x="505.082" y="431.981" width="2.55" height="62.861" fill="#e6e6e6" style=""/>
  <rect x="339.623" y="167.111" width="166.034" height="2.806" fill="#e6e6e6" style=""/>
  <rect x="369.526" y="142.623" width="2.589" height="105.449" transform="matrix(0.908323, -0.41827, 0.356309, 0.936855, -14.52088, -24.015678)" fill="#e6e6e6" style=""/>
  <rect x="487.464" y="-23.346" width="2.55" height="76.635" fill="#e6e6e6" style=""/>
  <path d="M 555.75 95.834 C 555.75 120.967 520.435 179.535 510.113 196.113 C 508.767 198.281 505.86 198.281 504.513 196.113 C 494.192 179.535 458.876 120.967 458.876 95.834 C 458.876 54.805 499.241 29.162 531.532 49.676 C 546.518 59.197 555.75 76.791 555.75 95.834 Z" fill="#0b3d59" style=""/>
  <circle cx="390.49023" cy="159" r="29" fill="#fff" transform="matrix(0.849769, 0, 0, 0.935043, 175.487106, -56.579269)" style=""/>
  <rect x="355.797" y="483.309" width="225.406" height="2.595" transform="matrix(0.414037, -0.91026, 0.878518, 0.483822, -159.537231, 521.353088)" fill="#e6e6e6" style=""/>
  <path d="M 640.106 271.275 C 644.791 274.047 650.615 271.484 652.272 265.921 L 682.634 265.344 L 673.72 251.017 L 646.255 253.761 C 639.848 251.957 634.068 258.462 635.851 265.47 C 636.487 267.964 638.024 270.062 640.106 271.275 Z" fill="#ffb8b8" style=""/>
  <path d="M 658.333 270.858 C 656.348 270.858 654.764 269.036 654.85 266.855 L 655.464 251.535 C 655.533 249.65 656.843 248.104 658.548 247.895 L 693.721 243.457 L 692.542 268.985 L 658.505 270.853 C 658.447 270.856 658.39 270.858 658.333 270.858 Z" fill="#0b3d59" style=""/>
  <polygon points="701.17 480.842 691.266 484.4 674.078 444.063 688.694 438.811 701.17 480.842" fill="#ffb8b8" style=""/>
  <path d="M 706.831 490.496 L 674.899 501.972 L 674.767 501.528 C 672.525 493.975 676.272 485.852 683.136 483.385 L 683.137 483.385 L 702.639 476.376 L 706.831 490.496 Z" fill="#2f2e41" style=""/>
  <polygon points="730.338 497.71 719.92 497.71 714.965 453.493 730.34 453.494 730.338 497.71" fill="#ffb8b8" style=""/>
  <path d="M 732.996 508.823 L 699.404 508.821 L 699.404 508.354 C 699.404 500.408 705.257 493.967 712.478 493.967 L 712.479 493.967 L 732.996 493.968 L 732.996 508.823 Z" fill="#2f2e41" style=""/>
  <path d="M 714.515 486.949 C 712.753 486.946 711.269 485.496 711.058 483.571 L 697.626 360.01 L 677.965 394.739 L 701.034 459.61 C 701.684 461.468 700.942 463.565 699.321 464.451 L 679.751 474.988 C 677.855 476.01 675.576 474.954 674.912 472.75 L 653.224 400.65 C 651.591 395.224 651.377 389.402 652.609 383.848 L 666.632 320.525 L 666.796 320.428 L 698.407 301.375 L 698.588 301.448 L 735.814 316.398 L 731.919 397.576 L 734.749 481.831 C 734.829 483.915 733.375 485.682 731.483 485.8 L 714.733 486.942 C 714.66 486.946 714.588 486.949 714.515 486.949 Z" fill="#2f2e41" style=""/>
  <path d="M 694.009 344.588 C 688.447 344.588 683.762 342.844 680.829 338.413 L 680.735 338.271 L 682.632 316.366 L 665.76 326.672 C 664.444 327.475 662.832 326.41 662.858 324.755 C 662.861 324.508 662.903 324.265 662.982 324.034 L 684.024 262.547 L 697.918 212.459 C 699.328 204.252 705.196 197.855 712.668 196.379 C 725.045 193.878 732.416 198.473 740.929 208.671 C 745.1 213.699 746.927 220.565 745.879 227.275 L 737.826 277.917 L 740.193 323.324 C 740.564 324.93 739.954 326.616 738.682 327.502 C 732.101 332.112 711.92 344.586 694.009 344.588 Z" fill="#0b3d59" style=""/>
  <circle cx="643.32793" cy="237.85985" r="24.56103" fill="#ffb8b8" transform="matrix(0.849769, 0, 0, 0.935043, 175.487106, -56.579269)" style=""/>
  <path d="M 727.603 329.535 C 732.44 327.096 734.096 320.439 731.064 315.63 L 748.963 288.638 L 733.201 287.815 L 718.62 313.573 C 713.447 318.107 714.674 327.103 720.829 329.765 C 723.02 330.714 725.47 330.63 727.603 329.535 Z" fill="#ffb8b8" style=""/>
  <path d="M 737.298 314.304 C 736.424 314.44 735.536 314.208 734.812 313.653 L 722.962 304.56 C 721.485 303.436 721.033 301.258 721.918 299.539 L 743.014 258.237 L 721.796 230.133 C 715.617 221.948 719.807 209.472 729.339 207.675 C 734.559 206.693 739.778 209.416 742.389 214.486 L 765.817 259.986 C 766.154 260.645 766.154 261.451 765.816 262.109 L 739.834 312.403 C 739.349 313.34 738.529 314.009 737.573 314.248 C 737.481 314.272 737.389 314.29 737.298 314.304 Z" fill="#0b3d59" style=""/>
  <path d="M 713.826 162.899 C 711.76 161.202 708.901 161.467 706.453 160.577 C 700.064 158.256 698.345 149.2 703.356 144.259 C 705.999 141.653 709.761 141.061 713.283 140.584 C 718.11 139.931 722.983 139.276 727.823 139.796 C 732.662 140.316 737.534 142.114 741.072 145.786 C 744.972 149.834 746.893 155.859 746.905 161.759 C 746.769 167.685 745.291 173.482 742.604 178.621 C 741.773 180.573 740.521 182.273 738.956 183.571 C 737.329 184.753 735.034 185.063 733.467 183.786 C 732.112 182.682 731.616 180.749 731.003 179.021 C 730.391 177.292 729.346 175.451 727.678 175.184 C 725.529 174.84 723.89 177.245 721.84 178.031 C 718.972 179.132 715.788 176.698 714.617 173.615 C 713.448 170.531 713.756 167.042 714.084 163.72" fill="#2f2e41" style=""/>
  <circle cx="390.49023" cy="301" r="13" fill="#0b3d59" transform="matrix(0.849769, 0, 0, 0.935043, 175.487106, -56.579269)" style=""/>
  <path d="M 662.837 91.963 C 658.224 98.729 637.967 106.645 632.146 108.814 C 631.385 109.099 630.602 108.453 630.638 107.569 C 630.903 100.812 632.147 77.199 636.761 70.432 C 644.292 59.388 659.864 61.457 664.791 74.155 C 667.078 80.05 666.333 86.837 662.837 91.963 Z" fill="#f2f2f2" style=""/>
  <circle cx="558.97398" cy="146.27146" r="9.75962" fill="#fff" transform="matrix(0.849769, 0, 0, 0.935043, 175.487106, -56.579269)" style=""/>
  <circle cx="530.29262" cy="184.49602" r="4.375" fill="#f2f2f2" transform="matrix(0.849769, 0, 0, 0.935043, 175.487106, -56.579269)" style=""/>
  <path d="M 258.49 277.55 C 265.279 288.963 265.062 327.107 264.853 338.01 C 264.827 339.436 263.507 340.386 262.311 339.842 C 253.146 335.689 221.29 320.644 214.501 309.231 C 203.408 290.608 214.796 265.755 234.999 264.496 C 244.388 263.911 253.345 268.888 258.49 277.55 Z" fill="#f2f2f2" style=""/>
  <circle cx="70.60514" cy="372.46531" r="15.73854" fill="#fff" transform="matrix(0.849769, 0, 0, 0.935043, 175.487106, -56.579269)" style=""/>
  <circle cx="112.80964" cy="436.94577" r="7.05521" fill="#f2f2f2" transform="matrix(0.849769, 0, 0, 0.935043, 175.487106, -56.579269)" style=""/>
</svg>